M48
;DRILL file {KiCad 4.0.1-2.fc23-product} date Sun 24 Jan 2016 11:10:11 PM EST
;FORMAT={-:-/ absolute / inch / decimal}
FMAT,2
INCH,TZ
T1C0.013
T2C0.040
%
G90
G05
M72
T1
X0.828Y-1.5364
X0.8558Y-1.393
X0.918Y-1.5206
X0.9452Y-1.3814
X0.9466Y-1.459
X0.9724Y-1.6624
X1.003Y-1.4598
X1.0086Y-2.3744
X1.0174Y-1.5548
X1.0284Y-2.3976
X1.06Y-2.4196
X1.0866Y-1.5222
X1.0928Y-1.9624
X1.0944Y-2.
X1.1086Y-2.1952
X1.1124Y-1.89
X1.1212Y-2.4186
X1.1262Y-2.3142
X1.1264Y-2.2432
X1.1358Y-1.8696
X1.1632Y-1.0882
X1.1632Y-1.1218
X1.1632Y-1.1556
X1.1808Y-2.6092
X1.183Y-1.813
X1.1896Y-1.3876
X1.1922Y-1.8396
X1.1964Y-1.1566
X1.1982Y-1.1232
X1.1986Y-1.0866
X1.212Y-1.7896
X1.2138Y-2.1044
X1.2342Y-1.1614
X1.2348Y-1.1232
X1.2352Y-2.3758
X1.2354Y-1.087
X1.255Y-2.5654
X1.2678Y-1.161
X1.269Y-1.1244
X1.269Y-1.3418
X1.2694Y-1.0846
X1.2708Y-2.3964
X1.2736Y-1.8344
X1.2815Y-0.8858
X1.296Y-1.81
X1.2984Y-0.9456
X1.2992Y-1.9783
X1.3002Y-2.4696
X1.3142Y-1.5034
X1.3154Y-1.5688
X1.316Y-1.0448
X1.3162Y-1.5994
X1.3172Y-1.8264
X1.3538Y-2.2692
X1.354Y-1.982
X1.3588Y-2.1378
X1.373Y-2.5646
X1.398Y-2.6488
X1.4124Y-2.4672
X1.4194Y-2.56
X1.4218Y-2.3371
X1.4311Y-1.2559
X1.4446Y-0.9974
X1.4548Y-1.837
X1.468Y-2.119
X1.4806Y-2.56
X1.4823Y-1.2047
X1.4866Y-1.0228
X1.4872Y-0.9504
X1.4878Y-0.889
X1.4882Y-1.845
X1.4892Y-1.939
X1.4932Y-1.5986
X1.4974Y-2.0812
X1.5068Y-2.1926
X1.5392Y-2.234
X1.5432Y-1.8012
X1.5432Y-2.6076
X1.5552Y-1.4868
X1.5808Y-1.22
X1.5904Y-1.6186
X1.612Y-1.2386
X1.6252Y-1.8826
X1.627Y-2.3534
X1.6334Y-2.4086
X1.636Y-1.8012
X1.6434Y-1.8424
X1.648Y-1.4564
X1.648Y-1.4958
X1.648Y-1.5351
X1.6554Y-2.0998
X1.671Y-2.1514
X1.6756Y-1.1024
X1.6874Y-1.4564
X1.6874Y-1.4958
X1.6874Y-1.5351
X1.6938Y-1.7806
X1.6972Y-1.1608
X1.7032Y-1.8658
X1.7082Y-2.239
X1.723Y-0.8862
X1.7267Y-1.4564
X1.7267Y-1.4958
X1.7267Y-1.5351
X1.7504Y-2.0552
X1.7528Y-2.3248
X1.7604Y-2.151
X1.7624Y-2.2912
X1.8318Y-0.9832
X1.8449Y-1.3678
X1.8449Y-1.4072
X1.8449Y-1.4466
X1.8766Y-1.051
X1.8842Y-1.3678
X1.8842Y-1.4072
X1.8842Y-1.4466
X1.9188Y-0.9222
X1.963Y-1.9012
X2.1288Y-1.899
X2.2972Y-1.8124
X2.299Y-1.6678
X2.3666Y-1.742
T2
X0.8957Y-1.7618
X0.8957Y-1.8618
X0.8957Y-1.9618
X0.8957Y-2.0618
X0.8957Y-2.1618
X0.8957Y-2.2618
X2.0177Y-1.378
X2.0177Y-1.5453
X2.1177Y-1.378
X2.1177Y-1.5453
X2.2177Y-1.378
X2.2177Y-1.5453
X2.3177Y-1.378
X2.3177Y-1.5453
T0
M30
